# xmcd
#
# Track frame offsets: 
#        150
#        5415
#        20504
#        38617
#        58849
#        64485
#        85341
#        102276
#        118648
#        134508
#        153546
#        170153
#        186151
#        204153
#        224370
#
# Disc length: 3203 seconds
#
# Revision: 1
# Processed by: cddbd v1.5.2PL0 Copyright (c) Steve Scherf et al.
# Submitted via: ExactAudioCopy v1.0b3
#
DISCID=d70c810f
DTITLE=Ginuwine - A Man's Thoughts
DYEAR=2009
DGENRE=R&B
TTITLE0=Interlude
TTITLE1=Show Off
TTITLE2=Trouble (Feat. Bun B)
TTITLE3=Last Chance
TTITLE4=Interlude
TTITLE5=One Time For Love
TTITLE6=Open The Door
TTITLE7=Get Involved (Feat. Timbaland and Missy Elliott)
TTITLE8=Orchestra
TTITLE9=Touch Me
TTITLE10=Lying To Each Other
TTITLE11=Even When I'm Mad
TTITLE12=Bridge To Love (Feat. Brandy)
TTITLE13=Used To Be The One
TTITLE14=Show Me The Way
EXTD=
EXTT0=
EXTT1=
EXTT2=
EXTT3=
EXTT4=
EXTT5=
EXTT6=
EXTT7=
EXTT8=
EXTT9=
EXTT10=
EXTT11=
EXTT12=
EXTT13=
EXTT14=
PLAYORDER=
